<svg version="1.1" id="Layer_1" xmlns="http://www.w3.org/2000/svg" xmlns:xlink="http://www.w3.org/1999/xlink" x="0px" y="0px"
	 width="100%" viewBox="0 0 1024 1024" enable-background="new 0 0 1024 1024" xml:space="preserve">
<path fill="#000000" opacity="1.000000" stroke="none" 
	d="
M189.129852,566.761597 
	C176.778961,538.767517 170.008987,509.728607 166.620422,479.795715 
	C161.512878,434.678223 166.349030,390.764038 182.857971,348.380463 
	C202.459412,298.057526 234.270477,257.366791 279.381073,227.275391 
	C310.469543,206.537598 344.812683,194.652878 381.643585,189.971817 
	C409.143127,186.476715 436.411987,189.287827 463.484863,194.857605 
	C498.618591,202.085800 529.547424,217.450577 555.379517,242.392746 
	C582.500854,268.579803 600.756104,299.599030 605.397339,337.702240 
	C606.646790,347.959961 607.282654,358.228455 607.370605,368.560150 
	C607.799255,418.888458 606.625488,469.202942 605.882080,519.516785 
	C604.968750,581.326904 604.225708,643.135071 604.198425,704.951355 
	C604.197327,707.351990 603.517944,709.930420 605.365112,712.600159 
	C614.286438,710.010071 622.501221,705.657532 630.882263,701.751221 
	C644.943481,695.197388 658.170593,687.098633 671.662048,679.490540 
	C673.467224,678.472534 675.477112,676.371948 677.478760,678.325378 
	C679.817444,680.607849 682.441040,683.000305 683.149475,686.370422 
	C683.560730,688.326965 681.331055,689.001282 680.005920,689.833679 
	C662.782166,700.652710 644.955383,710.349792 626.435608,718.791626 
	C593.304688,733.893738 558.519531,743.220520 522.557861,748.091675 
	C496.939148,751.561951 471.218231,752.278442 445.388123,749.490356 
	C419.344025,746.679260 393.759827,742.259216 368.980774,733.411316 
	C329.471527,719.303589 294.962952,697.248718 264.043457,669.138245 
	C237.283676,644.809631 214.874435,617.127136 197.966125,585.103699 
	C194.858688,579.218384 192.179581,573.106934 189.129852,566.761597 
M521.348755,736.687805 
	C544.714783,732.234924 568.013245,727.553711 590.307373,718.895752 
	C593.412109,717.690002 594.740662,716.219299 594.740112,712.786499 
	C594.725830,627.991516 594.690735,543.195862 595.729065,458.405518 
	C595.787598,453.630066 594.261292,452.124512 589.450256,452.128357 
	C454.002075,452.236267 318.553711,452.235168 183.105515,452.130066 
	C178.498062,452.126495 177.068573,453.517090 177.179062,458.106049 
	C177.532440,472.784119 179.716980,487.209900 182.140076,501.645874 
	C189.515091,545.583679 207.402588,584.802185 234.633942,619.917114 
	C252.278015,642.669189 272.467163,662.793640 295.229401,680.469604 
	C324.671051,703.332458 357.207489,719.908752 392.976837,730.225647 
	C413.193115,736.056580 433.805939,739.135254 454.845917,740.242310 
	C476.897736,741.402710 498.700867,739.810425 521.348755,736.687805 
M207.863953,325.303284 
	C202.135117,336.409210 196.731888,347.656006 192.629501,359.491241 
	C184.027649,384.307220 178.578369,409.756805 177.362137,436.030579 
	C177.052383,442.722168 177.299088,442.746277 183.783920,442.746582 
	C263.942322,442.750366 344.100739,442.751617 424.259155,442.748444 
	C430.933716,442.748169 430.930298,442.730988 430.926483,436.126434 
	C430.911682,410.462738 430.890320,384.799042 430.887817,359.135345 
	C430.882874,308.140717 430.897705,257.146088 430.879364,206.151474 
	C430.876953,199.485886 430.809631,199.449173 424.225220,199.280365 
	C412.236969,198.973022 400.266144,198.905807 388.302612,200.196182 
	C365.140839,202.694397 342.690948,207.946991 321.565948,217.883163 
	C272.187164,241.108597 234.493164,276.847260 207.863953,325.303284 
M440.267090,262.499969 
	C440.261230,286.160736 440.315704,309.821838 440.187927,333.481934 
	C440.167419,337.270020 441.197968,338.770264 445.261383,338.760559 
	C493.915710,338.644318 542.570435,338.648590 591.224854,338.743225 
	C595.286926,338.751129 596.107178,337.059387 595.470032,333.553284 
	C591.036621,309.153503 581.043030,287.414886 565.610779,267.900879 
	C535.170776,229.409561 494.968781,208.684906 447.127533,201.418579 
	C440.901947,200.473022 440.287476,201.109543 440.281860,207.513351 
	C440.266052,225.508881 440.271667,243.504410 440.267090,262.499969 
M487.337646,397.992737 
	C483.075104,391.165375 484.405212,384.570099 490.889282,380.623383 
	C491.985626,382.161530 491.372070,383.852509 491.164276,385.405640 
	C490.361389,391.406158 492.578369,394.933533 498.275787,396.391327 
	C505.389679,398.211548 513.604065,393.469727 515.555237,386.416595 
	C520.145874,369.822388 508.621033,354.274170 490.702209,351.174713 
	C477.604553,348.909149 453.995728,359.760864 446.502502,375.900116 
	C437.001007,396.364929 440.404388,423.797607 467.330536,435.443634 
	C483.433899,442.408630 500.134399,441.361633 516.931885,439.630554 
	C518.955078,439.422058 519.926025,438.211395 519.931091,436.312469 
	C519.965271,423.393951 519.948975,410.475311 519.948975,397.145691 
	C504.000885,405.241180 496.252625,405.488068 487.337646,397.992737 
M583.524658,404.000580 
	C593.951355,388.945160 597.978455,372.097351 597.642151,353.990601 
	C597.569092,350.054718 596.423340,347.841736 591.881104,347.844604 
	C572.243286,347.856995 552.597656,348.562531 532.968201,347.463104 
	C530.203186,347.308228 529.108826,348.397156 529.115479,351.215973 
	C529.179810,378.354218 529.180725,405.492706 529.144287,432.631042 
	C529.139832,435.927734 530.226501,437.134430 533.676453,436.280518 
	C553.761597,431.309418 570.439636,421.090881 583.524658,404.000580 
M595.748291,432.446503 
	C595.748291,423.827148 595.748291,415.207794 595.748291,406.588409 
	C583.908142,423.099548 569.224976,434.955933 550.688293,442.313110 
	C562.602295,442.668030 574.467163,442.715210 586.331482,442.653900 
	C596.878723,442.599426 595.581543,443.894440 595.748291,432.446503 
M440.297241,360.310364 
	C440.297241,362.587982 440.297241,364.865631 440.297241,368.088379 
	C447.543030,360.242096 454.356842,353.335602 463.223541,348.604431 
	C459.251160,348.047455 455.477051,348.095978 451.704529,348.038696 
	C438.150879,347.832977 440.528351,347.032562 440.297241,360.310364 
M449.634735,434.913574 
	C447.022369,432.429169 444.410004,429.944763 441.545044,427.220123 
	C439.821350,430.969330 440.522705,434.625824 440.317902,438.173492 
	C440.152557,441.038147 441.672119,441.941711 444.276947,441.911804 
	C449.315491,441.853943 454.355133,441.894897 460.027466,441.894897 
	C456.255005,439.823120 453.014404,437.884949 449.634735,434.913574 
M506.110504,348.797607 
	C511.036194,351.705139 514.787781,356.093140 519.326233,360.269745 
	C520.699402,348.066742 520.699341,348.063873 509.758270,348.223938 
	C508.596130,348.240906 507.434814,348.315765 506.110504,348.797607 
z"/>
<path fill="#000000" opacity="1.000000" stroke="none" 
	d="
M660.491333,662.587524 
	C662.226318,658.802185 664.275879,655.538818 665.075378,651.405029 
	C658.886963,648.746704 652.380615,648.143555 646.210632,646.382568 
	C638.058105,644.055603 629.809875,642.030457 621.535034,640.178406 
	C617.033142,639.170837 616.099731,636.743347 618.002502,633.027466 
	C623.181763,622.913086 629.204712,614.662048 642.622681,614.454712 
	C655.544861,614.255066 668.434387,611.969360 681.339355,610.610291 
	C683.091797,610.425781 684.517395,609.591858 685.690674,608.366577 
	C699.280029,594.174805 712.852051,579.966492 726.411621,565.746338 
	C726.605347,565.543213 726.581604,565.132812 726.915894,563.784241 
	C698.903442,557.119446 670.896301,550.455994 643.199951,543.866394 
	C642.669922,541.369446 644.133972,540.791260 645.045776,539.958130 
	C653.407532,532.318420 661.844360,524.760254 670.156616,517.067444 
	C672.002014,515.359436 673.915527,514.628845 676.405457,514.585510 
	C686.896667,514.402588 697.384155,514.016724 707.874939,513.795166 
	C728.524170,513.359070 749.174561,512.972656 769.824890,512.588928 
	C774.966919,512.493408 779.302612,511.146515 783.245422,507.314117 
	C796.858887,494.082123 809.744263,480.140991 823.665955,467.187683 
	C838.413330,453.466095 856.123230,447.389893 875.157104,443.780029 
	C881.524536,442.572418 888.001160,441.899384 894.523743,442.580627 
	C899.085144,443.057037 901.260254,445.522705 901.367310,450.163696 
	C901.538940,457.602783 897.816956,463.577271 894.260742,469.566986 
	C882.761658,488.935059 866.975525,504.811188 851.774658,521.137268 
	C844.174194,529.300415 836.362488,537.279785 828.372498,545.061096 
	C825.104980,548.243286 824.988159,552.235657 824.434021,556.051636 
	C821.090515,579.075500 816.525757,601.911926 813.893066,625.044495 
	C813.179016,631.317871 812.104797,637.550110 811.387756,643.823181 
	C811.091370,646.416321 809.626831,649.459045 813.400330,651.141541 
	C814.380493,651.578552 813.970886,652.959106 813.547546,653.877991 
	C812.855896,655.378967 812.356628,657.101074 811.277832,658.270142 
	C802.265259,668.037720 793.138794,677.700134 783.910400,687.539490 
	C779.053467,684.555115 779.501892,679.598694 778.983521,675.462708 
	C776.481628,655.499695 772.860535,635.735718 769.109924,615.986633 
	C768.435852,612.437561 768.402527,608.758118 766.842041,604.703735 
	C761.848816,608.787476 757.040405,612.489014 752.491943,616.486328 
	C741.732422,625.941772 731.119080,635.563354 720.389038,645.052612 
	C718.548523,646.680298 717.537659,648.427246 717.164124,650.945496 
	C715.385010,662.939453 713.368286,674.898254 711.426392,686.867920 
	C710.306396,693.771118 705.989014,699.649841 699.290039,703.409851 
	C697.505371,703.101257 697.208496,701.423828 696.475159,700.195557 
	C692.889282,694.189575 689.419800,688.113403 685.784729,682.137756 
	C682.268799,676.358093 678.975586,670.575500 681.734375,662.722168 
	C677.380493,664.388367 674.421326,666.667725 671.353333,668.731445 
	C668.572754,670.601868 665.670837,672.232117 662.450073,673.174194 
	C660.820923,673.650818 659.065857,673.687927 657.710938,672.444458 
	C656.036682,670.908020 657.383789,669.355225 657.982483,667.895874 
	C658.676819,666.203369 659.536987,664.578857 660.491333,662.587524 
M863.252014,465.649414 
	C863.804565,464.152618 865.021790,462.783325 863.934082,460.514862 
	C858.396973,459.779175 853.354797,461.746429 849.164062,465.274841 
	C846.250610,467.727814 846.681213,471.341949 849.118591,474.181213 
	C851.593750,477.064636 853.958801,475.084167 855.925354,473.299408 
	C858.362061,471.087891 860.561523,468.614929 863.252014,465.649414 
z"/>
<path fill="#000000" opacity="1.000000" stroke="none" 
	d="
M732.392090,648.406860 
	C728.441528,651.663208 724.758911,654.688538 720.583984,658.118347 
	C719.416016,654.244690 718.637207,650.689270 721.809082,648.678223 
	C728.119141,644.677368 734.848938,641.338257 741.847107,638.340759 
	C739.776184,642.694580 735.927795,645.161072 732.392090,648.406860 
z"/>
</svg>